<svg
    width="360"
    height="319"
    viewBox="0 0 360 319"
    fill="none"
    className="logo"
    xmlns="http://www.w3.org/2000/svg"
  >
    <g>
      <path
        d="M266.83 3.7308C256.748 -2.38419e-07 245.589 5.22979 241.936 15.1897C240.504 18.6984 240.359 22.4959 241.081 25.938L205.883 42.3491C203.729 39.6176 200.875 37.4746 197.433 36.1866C187.351 32.4558 176.192 37.6189 172.539 47.6455C168.819 57.7497 173.971 68.931 183.986 72.6507C187.417 73.9387 190.993 74.1608 194.435 73.5168L210.457 108.982C207.67 111.125 205.45 114 204.084 117.576C200.364 127.68 205.516 138.861 215.532 142.581C225.625 146.312 236.784 141.149 240.504 131.122C244.223 121.085 239.005 109.837 229.056 106.117C225.547 104.829 221.972 104.607 218.607 105.251L202.585 69.786C205.305 67.643 207.526 64.7672 208.814 61.1918C210.102 57.6831 210.38 54.0189 209.669 50.5879L244.867 34.1102C247.01 36.8306 249.875 38.9736 253.306 40.2727C263.399 43.9924 274.492 38.8292 278.211 28.8027C281.931 18.7762 276.846 7.4505 266.83 3.7308ZM358.912 157.06C357.125 146.456 347.109 139.361 336.439 141.082C332.797 141.726 329.432 143.447 326.856 145.734L295.089 123.45C296.31 120.296 296.732 116.643 296.088 112.99C294.301 102.464 284.285 95.3687 273.77 97.1563C263.188 98.944 256.104 108.982 257.814 119.652C258.458 123.305 260.035 126.459 262.256 129.046L239.715 160.635C236.429 159.347 232.853 158.848 229.134 159.425C218.541 161.28 211.457 171.239 213.178 181.921C215.032 192.447 225.125 199.62 235.64 197.755C246.155 195.967 253.306 185.929 251.452 175.403C250.874 171.75 249.231 168.519 247.01 165.865L269.617 134.276C272.915 135.708 276.49 136.13 280.21 135.486C283.93 134.842 287.228 133.121 289.792 130.833L321.638 153.118C320.35 156.272 319.994 159.925 320.494 163.578C322.348 174.104 332.297 181.199 342.956 179.412C353.616 177.691 360.7 167.586 358.912 157.06ZM305.249 166.232C303.394 155.694 293.446 148.533 282.786 150.398C272.271 152.186 265.12 162.212 266.975 172.75C268.762 183.353 278.778 190.449 289.293 188.728C299.952 186.862 307.036 176.836 305.249 166.232ZM272.415 313.465C280.71 306.659 281.787 294.411 274.914 286.173C272.56 283.308 269.484 281.231 266.186 280.077L269.551 241.392C272.915 240.892 276.279 239.526 279.066 237.095C287.361 230.288 288.438 217.963 281.642 209.791C274.769 201.474 262.544 200.409 254.239 207.282C251.452 209.647 249.375 212.589 248.298 215.887L209.736 212.089C209.169 208.647 207.815 205.205 205.372 202.263C198.577 194.024 186.352 192.958 178.124 199.765C169.818 206.638 168.741 218.896 175.614 227.057C182.41 235.374 194.713 236.44 202.874 229.633C205.738 227.201 207.737 224.192 208.814 220.972L247.443 224.77C247.943 228.279 249.309 231.643 251.74 234.585C254.172 237.45 257.248 239.526 260.612 240.67L257.248 279.366C253.817 279.866 250.519 281.298 247.654 283.663C239.36 290.47 238.283 302.795 245.156 310.956C251.885 319.272 264.188 320.416 272.415 313.465ZM237.639 271.627C245.867 264.743 246.944 252.495 240.148 244.179C233.275 235.94 221.05 234.796 212.745 241.681C204.517 248.487 203.44 260.801 210.246 268.973C217.186 277.29 229.345 278.433 237.639 271.627ZM93.8365 316.763C103.93 320.494 115.089 315.331 118.742 305.304C120.174 301.795 120.307 298.131 119.597 294.7L154.795 278.222C156.938 280.943 159.803 283.086 163.234 284.374C173.327 288.105 184.486 282.941 188.139 272.915C191.859 262.811 186.707 251.64 176.691 247.91C173.249 246.688 169.674 246.4 166.243 247.055L150.22 211.723C153.007 209.502 155.228 206.571 156.583 203.051C160.303 192.958 155.15 181.777 145.135 178.046C135.053 174.326 123.894 179.556 120.174 189.583C116.443 199.542 121.673 210.79 131.611 214.521C135.12 215.809 138.695 216.02 142.059 215.376L158.082 250.852C155.373 252.995 153.152 255.86 151.864 259.446C150.576 263.033 150.287 266.752 151.009 270.195L115.799 286.606C113.656 283.874 110.792 281.731 107.361 280.443C97.2786 276.712 86.1861 281.875 82.4664 291.902C78.669 301.862 83.8211 313.043 93.8365 316.763ZM112.801 265.675C122.883 269.406 133.976 264.176 137.696 254.139C141.415 244.179 136.263 232.931 126.248 229.211C116.166 225.48 105.007 230.644 101.287 240.67C97.5562 250.708 102.708 261.956 112.801 265.675ZM1.76559 163.5C3.55326 174.038 13.5687 181.133 24.2281 179.345C27.8812 178.69 31.2456 177.124 33.8216 174.682L65.5779 196.966C64.3676 200.264 63.9345 203.773 64.5785 207.426C66.3662 217.963 76.3817 225.125 86.8967 223.26C97.4896 221.472 104.574 211.434 102.853 200.908C102.209 197.255 100.643 194.024 98.4223 191.381L120.951 159.781C124.249 161.213 127.825 161.646 131.544 161.002C142.137 159.203 149.21 149.177 147.5 138.639C145.635 128.035 135.553 120.94 125.038 122.661C114.522 124.527 107.361 134.487 109.226 145.168C109.792 148.821 111.436 151.975 113.656 154.551L91.0495 186.152C87.7628 184.852 84.1875 184.353 80.4678 184.997C76.737 185.574 73.4503 187.217 70.8743 189.583L39.0403 167.298C40.3283 164.155 40.6836 160.569 40.184 156.916C38.3186 146.312 28.3809 139.217 17.7214 140.938C7.062 142.87 -0.0220881 152.896 1.76559 163.5ZM55.4181 154.262C57.2835 164.866 67.2323 171.961 77.8917 170.24C88.4068 168.375 95.5575 158.27 93.7032 147.744C91.9045 137.207 81.889 130.045 71.3739 131.911C60.7145 133.698 53.6304 143.725 55.4181 154.262ZM88.2625 7.01746C79.957 13.824 78.8911 26.1489 85.7531 34.3212C88.1181 37.1859 91.1938 39.2623 94.4805 40.4059L91.1272 79.1019C87.7628 79.6793 84.3984 81.0339 81.6114 83.399C73.306 90.2832 72.24 102.53 79.0354 110.703C85.8974 119.008 98.1336 120.085 106.428 113.279C109.226 110.847 111.302 107.838 112.368 104.607L150.931 108.404C151.508 111.913 152.863 115.288 155.295 118.22C162.09 126.536 174.404 127.613 182.554 120.729C190.848 113.923 191.925 101.598 185.063 93.4366C178.257 85.12 165.954 84.043 157.804 90.9272C154.939 93.2923 152.941 96.2236 151.864 99.5214L113.234 95.724C112.724 92.2819 111.369 88.8509 108.937 85.9084C106.506 83.0437 103.43 80.9673 100.066 79.9569L103.43 41.1277C106.861 40.628 110.225 39.2623 113.012 36.8972C121.318 30.0241 122.384 17.7657 115.522 9.46025C108.793 1.28802 96.4902 0.0666211 88.2625 7.01746ZM123.028 49.0112C114.8 55.8177 113.734 68.1427 120.529 76.3038C127.392 84.6204 139.628 85.6974 147.933 78.8132C156.15 72.0067 157.227 59.7595 150.431 51.5206C143.492 43.2818 131.333 42.0604 123.028 49.0112ZM247.876 54.9516C237.783 51.2319 226.702 56.384 222.971 66.4216C219.251 76.4482 224.403 87.6961 234.419 91.4269C244.512 95.08 255.671 89.9168 259.391 79.8903C263.111 69.8637 257.958 58.6824 247.876 54.9516Z"
        fill='#004aad'
      />
    </g>
  </svg>